<svg width="3619" height="2371" viewBox="0 0 3619 2371" fill="none" xmlns="http://www.w3.org/2000/svg">
<path d="M906.45 2192.04C1405.19 2429.45 2213.81 2429.45 2712.56 2192.05C3211.3 1954.64 3211.3 1569.73 2712.56 1332.33C2213.81 1094.93 1405.18 1094.93 906.443 1332.32C407.701 1569.73 407.701 1954.64 906.45 2192.04Z" fill="#F5F5F5"/>
<path d="M2593.25 1993.42C2658.2 2024.33 2763.5 2024.33 2828.45 1993.42C2893.41 1962.51 2893.41 1912.38 2828.45 1881.46C2763.5 1850.54 2658.2 1850.54 2593.25 1881.46C2528.29 1912.38 2528.29 1962.51 2593.25 1993.42Z" fill="#ECECEC"/>
<path d="M868.228 1948.79L927.029 1914.89C927.029 1914.89 975.538 1879.28 999.561 1813.17C1017.74 1763.15 1015.23 1725.1 1002.2 1706.02C986.164 1682.55 944.683 1686.65 943.033 1736.13C939.79 1833.58 911.323 1901 868.228 1948.79Z" fill="#9B64FD"/>
<g opacity="0.199997">
<path d="M868.228 1948.79L927.029 1914.89C927.029 1914.89 975.538 1879.28 999.561 1813.17C1017.74 1763.15 1015.23 1725.1 1002.2 1706.02C986.164 1682.55 944.683 1686.65 943.033 1736.13C939.79 1833.58 911.323 1901 868.228 1948.79Z" fill="black"/>
</g>
<path d="M868.231 1952.41C867.081 1952.41 865.959 1951.87 865.249 1950.85C864.113 1949.21 864.526 1946.96 866.169 1945.82C1002.22 1851.8 975.868 1720.81 975.585 1719.49C975.158 1717.55 976.403 1715.62 978.358 1715.21C980.326 1714.77 982.237 1716.02 982.657 1717.97C982.954 1719.33 1010.44 1854.91 870.287 1951.77C869.657 1952.21 868.941 1952.41 868.231 1952.41Z" fill="white"/>
<path d="M750.625 2016.61C750.625 2016.61 730.156 1999.96 735.106 1977.43C740.064 1954.89 753.267 1938.69 730.568 1909.61C707.87 1880.54 702.007 1841.8 728.701 1820.8C749.336 1804.55 781.538 1827.58 793.162 1784.54C801.645 1753.17 798.75 1683.7 838.827 1660.59C878.897 1637.49 903.781 1672.28 897.629 1719.39C892.12 1761.54 884.376 1802.12 890.347 1813.17C902.036 1834.78 922.129 1831.87 921.217 1871.48C920.363 1908.34 885.454 1938.86 885.454 1938.86L750.625 2016.61Z" fill="#9B64FD"/>
<path d="M817.879 1981.44C816.07 1981.44 814.514 1980.08 814.289 1978.26C803.932 1892.6 828.613 1744.72 849.032 1700.76C849.871 1698.95 852.007 1698.15 853.838 1699.01C855.655 1699.84 856.443 1701.99 855.597 1703.8C835.54 1746.99 811.568 1895.52 821.477 1977.39C821.716 1979.37 820.297 1981.17 818.321 1981.41C818.169 1981.43 818.024 1981.44 817.879 1981.44Z" fill="white"/>
<path d="M815.922 1914.75C815.386 1914.75 814.85 1914.63 814.336 1914.39C789.221 1902.13 773.304 1858.57 772.638 1856.72C771.958 1854.84 772.935 1852.78 774.817 1852.1C776.699 1851.42 778.769 1852.39 779.449 1854.28C779.601 1854.7 795.04 1896.91 817.514 1907.89C819.309 1908.77 820.054 1910.94 819.179 1912.73C818.549 1914.01 817.261 1914.75 815.922 1914.75Z" fill="white"/>
<path d="M815.512 1943.62C814.079 1943.62 812.718 1942.76 812.153 1941.35C811.408 1939.5 812.313 1937.4 814.166 1936.65C856.428 1919.74 882.775 1869.44 883.035 1868.93C883.954 1867.16 886.133 1866.45 887.906 1867.38C889.687 1868.29 890.382 1870.47 889.47 1872.25C888.348 1874.41 861.603 1925.45 816.858 1943.36C816.417 1943.53 815.961 1943.62 815.512 1943.62Z" fill="white"/>
<path d="M2293.01 1554.76C2293.01 1554.76 2261.36 1503.64 2258.3 1447.99C2255.25 1392.33 2267.48 1369.23 2284.26 1362.6C2301.04 1355.97 2302.31 1376.39 2310.98 1388.5C2319.65 1400.6 2337.18 1393.67 2343.66 1356.03C2350.13 1318.4 2373.9 1254.61 2423.05 1242.44C2477.34 1229.01 2448.22 1292.61 2434.59 1317.42C2420.96 1342.24 2410.33 1376.03 2419.32 1385.24C2428.3 1394.44 2442.24 1377.44 2455.61 1393.19C2471.74 1412.22 2421.59 1480.62 2392.8 1497.22L2293.01 1554.76Z" fill="#9B64FD"/>
<path d="M2336.37 1533.24C2336.3 1533.24 2336.24 1533.24 2336.18 1533.23C2334.18 1533.12 2332.65 1531.42 2332.76 1529.44C2340.73 1381.42 2413.05 1278.9 2413.79 1277.89C2414.95 1276.25 2417.22 1275.88 2418.84 1277.06C2420.46 1278.21 2420.84 1280.47 2419.67 1282.09C2418.95 1283.1 2347.83 1384 2339.98 1529.81C2339.88 1531.74 2338.29 1533.24 2336.37 1533.24Z" fill="white"/>
<path d="M2340.5 1490.56C2339.91 1490.56 2339.31 1490.41 2338.75 1490.12C2318.48 1478.91 2307.25 1445.67 2306.79 1444.26C2306.16 1442.36 2307.18 1440.32 2309.08 1439.69C2310.97 1439.04 2313.04 1440.09 2313.66 1441.98C2313.77 1442.3 2324.46 1473.96 2342.26 1483.79C2344 1484.75 2344.64 1486.95 2343.67 1488.7C2343.02 1489.89 2341.78 1490.56 2340.5 1490.56Z" fill="white"/>
<path d="M2344.05 1468.65C2342.43 1468.65 2340.95 1467.57 2340.55 1465.93C2340.05 1463.98 2341.22 1462.02 2343.16 1461.54C2395.4 1448.34 2413.5 1421 2413.67 1420.73C2414.76 1419.05 2417 1418.57 2418.68 1419.63C2420.35 1420.7 2420.85 1422.93 2419.78 1424.6C2419.01 1425.82 2400.21 1454.59 2344.94 1468.54C2344.64 1468.62 2344.34 1468.65 2344.05 1468.65Z" fill="white"/>
<path d="M1505.66 1442.37C1505.66 1442.37 1436.26 1425.47 1432.65 1295.68C1428.75 1155.58 1449.65 992.142 1367.79 978.849C1285.94 965.555 1240.01 1065.8 1241.06 1182.29C1241.98 1284.56 1283.22 1506.48 1505.66 1549.98L1505.66 1442.37Z" fill="#9B64FD"/>
<g opacity="0.199997">
<path d="M1505.66 1442.37C1505.66 1442.37 1436.26 1425.47 1432.65 1295.68C1428.75 1155.58 1449.65 992.142 1367.79 978.849C1285.94 965.555 1240.01 1065.8 1241.06 1182.29C1241.98 1284.56 1283.22 1506.48 1505.66 1549.98L1505.66 1442.37Z" fill="black"/>
</g>
<path d="M1505.66 1536.63C1505.44 1536.63 1505.23 1536.61 1505.01 1536.58C1454.96 1527.47 1414.22 1499.98 1383.93 1454.85C1294 1320.87 1322.34 1070.79 1331.64 1027.1C1332.06 1025.15 1333.97 1023.91 1335.93 1024.32C1337.88 1024.74 1339.13 1026.65 1338.72 1028.6C1329.52 1071.8 1301.42 1318.94 1389.94 1450.82C1419.1 1494.27 1458.25 1520.72 1506.3 1529.46C1508.27 1529.82 1509.58 1531.7 1509.21 1533.67C1508.89 1535.41 1507.37 1536.63 1505.66 1536.63Z" fill="white"/>
<path d="M1505.67 1869.84C1433.9 1879.55 1317.34 1879.38 1250.2 1826.49C1183.06 1773.6 1197.02 1728.03 1222.86 1709.01C1248.68 1690 1271.11 1668.27 1226.69 1626.07C1182.25 1583.88 1110.83 1516.08 1087.74 1414.35C1064.64 1312.64 1076.02 1249.07 1121.46 1227.87C1165.57 1207.31 1177.18 1239.97 1204.18 1307.35C1231.17 1374.75 1291.91 1316.97 1343.85 1338.01C1395.79 1359.04 1393.75 1400.68 1397.02 1436.48C1400.3 1472.27 1417.45 1482.16 1446.86 1482.16C1476.27 1482.16 1505.65 1499.12 1505.66 1533.02L1505.67 1869.84Z" fill="#9B64FD"/>
<path d="M1505.67 1751.74C1505.35 1751.74 1505.02 1751.7 1504.69 1751.61C1501.58 1750.74 1427.37 1729.17 1319.35 1630.07C1204.28 1524.5 1149.96 1366.23 1149.42 1364.65C1148.78 1362.75 1149.8 1360.7 1151.69 1360.07C1153.59 1359.44 1155.64 1360.45 1156.28 1362.34C1156.81 1363.91 1210.58 1520.47 1324.25 1624.75C1430.83 1722.52 1505.9 1744.43 1506.64 1744.65C1508.57 1745.19 1509.69 1747.18 1509.15 1749.11C1508.7 1750.69 1507.25 1751.74 1505.67 1751.74Z" fill="white"/>
<path d="M1349.41 1655.31C1347.96 1655.31 1346.59 1654.43 1346.03 1653.01C1322.81 1593.39 1317.54 1465.96 1317.33 1460.57C1317.26 1458.57 1318.81 1456.89 1320.81 1456.81C1322.66 1456.83 1324.49 1458.28 1324.57 1460.28C1324.62 1461.59 1329.99 1591.9 1352.78 1650.38C1353.5 1652.24 1352.58 1654.34 1350.72 1655.06C1350.29 1655.23 1349.85 1655.31 1349.41 1655.31Z" fill="white"/>
<path d="M1348.8 1741.04C1337.55 1741.04 1329.77 1740.16 1328.83 1740.04C1326.85 1739.81 1325.43 1738.01 1325.67 1736.03C1325.9 1734.05 1327.69 1732.58 1329.68 1732.87C1330.36 1732.94 1397.7 1740.54 1428.63 1709.04C1430.02 1707.6 1432.33 1707.6 1433.75 1708.98C1435.18 1710.38 1435.2 1712.68 1433.8 1714.09C1411.16 1737.15 1372.38 1741.04 1348.8 1741.04Z" fill="white"/>
<path d="M1165.43 520.781C1132.47 546.66 1122.43 552.305 1116.47 517.731C1110.5 483.156 1129.78 430.43 1162.75 404.552C1195.71 378.666 1208.36 376.736 1214.32 411.31C1220.29 445.885 1198.39 494.895 1165.43 520.781ZM1296.68 372.232L1288.9 327.162L1248.64 353.626C1244.6 345.927 1239.42 339.739 1233.32 335.063L1252.59 283.009L1216.72 275L1190.21 325.434C1181.43 326.786 1172.16 329.742 1162.6 334.412L1151.13 296.396L1108.16 330.133L1110.98 374.95C1102.28 384.608 1094.32 395.183 1087.22 406.301L1051.72 404.552L1026.84 460.27L1057.32 473.26C1054.1 485.245 1052.03 497.136 1051.29 508.572L1012.6 544.115L1020.37 589.186L1060.63 562.722C1064.67 570.428 1069.85 576.615 1075.95 581.285L1056.68 633.339L1092.56 641.355L1130.47 604.431C1139.26 603.087 1137.12 586.605 1146.67 581.936L1158.14 619.951L1201.11 586.215L1200 568.592C1208.7 558.927 1241.54 537.61 1248.64 526.492L1257.55 511.796L1282.44 456.077L1270.84 435.093L1257.98 407.776L1296.68 372.232Z" fill="#E1E1E1"/>
<path d="M1216.72 274.997L1263.66 302.032L1237.15 352.466L1190.21 325.438L1216.72 274.997Z" fill="#F5F5F5"/>
<path d="M1335.84 354.198L1295.58 380.662L1248.64 353.626L1288.9 327.162L1335.84 354.198Z" fill="#F5F5F5"/>
<path d="M1329.38 483.11L1298.89 470.127L1251.95 443.092L1282.44 456.075L1329.38 483.11Z" fill="#E1E1E1"/>
<path d="M1056.68 633.341L1103.62 660.376L1122.88 608.322L1075.95 581.287L1056.68 633.341Z" fill="#E1E1E1"/>
<path d="M1205.08 646.986L1158.14 619.951L1146.67 581.936L1193.61 608.971L1205.08 646.986Z" fill="#E1E1E1"/>
<path d="M1212.37 547.815C1179.41 573.701 1147.85 566.646 1141.89 532.071C1135.92 497.496 1157.82 448.486 1190.78 422.607C1223.74 396.722 1255.3 403.769 1261.26 438.344C1267.22 472.919 1245.33 521.929 1212.37 547.815ZM1343.61 399.266L1335.85 354.195L1295.58 380.659C1291.54 372.961 1286.36 366.773 1280.26 362.096L1299.53 310.043L1263.65 302.033L1237.16 352.468C1228.37 353.819 1219.1 356.776 1209.54 361.446L1198.07 323.43L1155.11 357.166L1157.92 401.984C1149.22 411.641 1141.27 422.217 1134.17 433.335L1098.66 431.585L1073.78 487.304L1104.26 500.294C1101.04 512.279 1098.97 524.17 1098.24 535.613L1059.53 571.149L1067.31 616.22L1107.57 589.756C1111.61 597.461 1116.79 603.649 1122.89 608.326L1103.62 660.372L1139.49 668.389L1166 617.947C1174.79 616.603 1184.05 613.639 1193.61 608.969L1205.08 646.985L1248.05 613.249L1245.23 568.438C1253.93 558.774 1261.89 548.205 1268.99 537.08L1304.49 538.83L1329.38 483.111L1298.9 470.121C1302.12 458.136 1304.19 446.252 1304.91 434.809L1343.61 399.266Z" fill="#ECECEC"/>
<path d="M1198.07 323.43L1151.13 296.395L1108.17 330.131L1155.1 357.166L1198.07 323.43Z" fill="#F5F5F5"/>
<path d="M1108.17 330.133L1110.98 374.95L1157.92 401.978L1155.1 357.168L1108.17 330.133Z" fill="#E1E1E1"/>
<path d="M1134.16 433.336L1087.23 406.3L1051.72 404.551L1098.66 431.586L1134.16 433.336Z" fill="#F5F5F5"/>
<path d="M1051.72 404.551L1026.84 460.269L1073.78 487.305L1098.66 431.586L1051.72 404.551Z" fill="#E1E1E1"/>
<path d="M1098.24 535.61L1051.3 508.574L1012.6 544.118L1059.54 571.153L1098.24 535.61Z" fill="#F5F5F5"/>
<path d="M1067.31 616.219L1020.37 589.184L1012.6 544.113L1059.53 571.148L1067.31 616.219Z" fill="#E1E1E1"/>
<path d="M1263.66 302.03L1216.72 274.995L1252.6 283.011L1299.53 310.039L1263.66 302.03Z" fill="#F5F5F5"/>
<path d="M898.685 335.882C853.904 361.703 826.066 343.386 826.066 291.744C826.066 240.103 863.074 176.837 907.863 151.017C952.644 125.196 979.772 143.976 979.772 195.617C979.772 247.266 943.467 310.062 898.685 335.882ZM1086.37 167.816V100.496L1032.73 124.646C1029.5 112.213 1024.57 101.551 1018.24 92.7609L1052.04 24.7031L1010.76 0.906355L968.648 64.1643C957.856 63.0873 946.152 64.1571 933.753 67.5763L927.869 9.10362L869.502 42.7603L863.617 108.013C851.218 118.892 839.514 131.326 828.723 144.843L786.612 130.155L745.334 201.552L779.128 230.633C772.802 246.724 767.873 263.068 764.637 279.231L710.997 316.936V384.249L764.637 360.106C767.873 372.532 772.802 383.194 779.128 391.984L745.334 460.042L786.612 483.846L828.723 420.58C839.514 421.658 851.218 420.595 863.617 417.176L869.502 475.641L927.869 441.985L933.753 376.731C951.146 370.941 969.755 357.489 980.547 343.971L1010.76 354.597L1052.04 283.2L1026.71 261.405C1033.04 245.314 1033.71 219.588 1032.73 205.521L1086.37 167.816Z" fill="#E1E1E1"/>
<path d="M1057.7 27.9371L1010.76 0.901903L968.646 64.1671L1015.58 91.1951L1057.7 27.9371Z" fill="#F5F5F5"/>
<path d="M1133.31 127.529L1086.37 100.494L1032.73 124.645L1079.67 151.68L1133.31 127.529Z" fill="#F5F5F5"/>
<path d="M916.441 502.679L869.502 475.643L863.618 417.171L910.564 444.206L916.441 502.679Z" fill="#E1E1E1"/>
<path d="M745.334 460.044L792.272 487.079L826.066 419.021L779.128 391.986L745.334 460.044Z" fill="#E1E1E1"/>
<path d="M945.627 362.916C900.845 388.737 864.539 367.803 864.539 316.161C864.539 264.52 900.845 201.724 945.627 175.896C990.408 150.083 1026.71 171.01 1026.71 222.651C1026.71 274.3 990.408 337.095 945.627 362.916ZM1133.32 194.85V127.529L1079.67 151.68C1076.44 139.247 1071.51 128.585 1065.18 119.795L1098.98 51.7368L1057.7 27.94L1015.58 91.198C1004.8 90.121 993.093 91.1908 980.695 94.6099L974.81 36.1373L916.443 69.794L910.558 135.047C898.16 145.926 886.456 158.359 875.664 171.877L833.546 157.188L792.275 228.586L826.069 257.667C819.743 273.758 814.814 290.102 811.579 306.265L757.938 343.97V411.283L811.579 387.139C814.814 399.565 819.743 410.228 826.069 419.025L792.275 487.083L833.546 510.879L875.664 447.621C886.456 448.691 898.16 447.629 910.558 444.209L916.443 502.675L974.81 469.018L980.695 403.765C993.093 392.893 1004.8 380.46 1015.58 366.942L1057.7 381.631L1098.98 310.234L1065.18 281.145C1071.51 265.054 1076.44 248.718 1079.67 232.554L1133.32 194.85Z" fill="#ECECEC"/>
<path d="M828.726 144.842L875.665 171.877L833.547 157.189L786.608 130.153L828.726 144.842Z" fill="#F0F0F0"/>
<path d="M792.271 228.586L745.333 201.551L786.611 130.153L833.55 157.188L792.271 228.586Z" fill="#F5F5F5"/>
<path d="M745.334 201.549L792.272 228.584L826.066 257.672L779.128 230.629L745.334 201.549Z" fill="#E1E1E1"/>
<path d="M764.641 279.229L811.579 306.264L757.939 343.976L711 316.94L764.641 279.229Z" fill="#F5F5F5"/>
<path d="M710.999 316.939L757.937 343.974V411.287L710.999 384.252V316.939Z" fill="#E1E1E1"/>
<path d="M974.811 36.1402L927.873 9.10507L869.499 42.7617L916.444 69.7969L974.811 36.1402Z" fill="#F5F5F5"/>
<path d="M1577 1966.57L2257.56 1574.16C2264.48 1570.16 2264.48 1563.7 2257.56 1559.69L2194.61 1523.32C2187.69 1519.31 2176.46 1519.3 2169.54 1523.3L1488.8 1915.71C1481.87 1919.71 1481.87 1926.18 1488.8 1930.17L1551.93 1966.57C1558.86 1970.56 1570.08 1970.56 1577 1966.57Z" fill="#E1E1E1"/>
<path d="M2238.74 59.2486L1625.2 413.019C1607.89 423.002 1593.86 447.276 1593.86 467.234V1920.7C1593.86 1940.66 1607.89 1948.75 1625.2 1938.77L2238.75 1585C2256.06 1575.02 2270.09 1550.74 2270.09 1530.79L2270.08 77.3203C2270.08 57.3619 2256.05 49.2658 2238.74 59.2486Z" fill="#375A64"/>
<path d="M1625.2 413.018L2238.74 59.248C2254.22 50.3278 2267.04 55.8794 2269.59 71.421C2267.24 52.7928 2254.38 32.126 2238.74 23.1047L2213.22 8.3871C2195.92 -1.58845 2167.85 -1.58845 2150.53 8.3871L1537 362.158C1528.34 367.153 1520.51 375.711 1514.83 385.528L1603.04 436.381C1608.71 426.572 1616.55 418.006 1625.2 413.018Z" fill="#2B454E"/>
<path d="M1505.67 1869.84C1505.67 1889.8 1519.69 1914.08 1537.01 1924.05L1562.53 1938.77C1578.18 1947.79 1602.55 1948.58 1619.88 1941.28C1605.11 1946.88 1593.86 1938.57 1593.86 1920.7V467.232C1593.86 457.249 1597.37 446.196 1603.04 436.38L1514.84 385.526C1509.16 395.335 1505.66 406.395 1505.66 416.378L1505.67 1869.84Z" fill="#1A2E35"/>
<path d="M1642.07 606.728L2221.88 272.402C2232.27 266.417 2240.69 271.275 2240.69 283.245L2240.69 1358.76C2240.69 1370.74 2232.27 1385.3 2221.88 1391.29L1642.07 1725.62C1631.69 1731.6 1623.26 1726.74 1623.26 1714.77V639.257C1623.26 627.279 1631.68 612.72 1642.07 606.728Z" fill="white"/>
<path d="M1931.97 291.272C1925.89 294.785 1920.95 303.322 1920.95 310.341C1920.95 317.367 1925.89 320.208 1931.97 316.702C1938.07 313.189 1943 304.652 1943 297.626C1943 290.606 1938.07 287.758 1931.97 291.272Z" fill="#2B454E"/>
<path d="M1931.99 1610.1C1907.94 1623.96 1888.45 1657.68 1888.45 1685.41C1888.45 1713.13 1907.94 1724.37 1931.99 1710.51C1956.03 1696.65 1975.52 1662.93 1975.52 1635.2C1975.52 1607.48 1956.03 1596.24 1931.99 1610.1Z" fill="#2B454E"/>
<path d="M1827.84 403.15C1815.66 410.176 1805.79 427.25 1805.79 441.295C1805.79 455.341 1815.66 461.03 1827.84 454.011C1840.02 446.984 1849.89 429.91 1849.89 415.865C1849.89 401.82 1840.02 396.131 1827.84 403.15Z" fill="#2B454E"/>
<path d="M1881.75 398.389C1881.75 407.75 1888.77 411.299 1897.42 406.304L2042.49 322.661C2051.14 317.666 2058.16 306.035 2058.16 296.674C2058.16 287.306 2051.14 283.764 2042.49 288.751L1897.42 372.402C1888.77 377.389 1881.75 389.027 1881.75 398.389Z" fill="#2B454E"/>
<path d="M1554.46 653.27C1564.2 658.886 1572.09 672.548 1572.09 683.789C1572.09 695.022 1564.2 699.576 1554.46 693.952C1544.71 688.343 1536.81 674.674 1536.81 663.44C1536.81 652.207 1544.71 647.653 1554.46 653.27Z" fill="#2B454E"/>
<path d="M1554.46 788.997C1564.2 794.614 1572.09 808.276 1572.09 819.516C1572.09 830.75 1564.2 835.304 1554.46 829.687C1544.71 824.07 1536.81 810.408 1536.81 799.168C1536.81 787.934 1544.71 783.38 1554.46 788.997Z" fill="#2B454E"/>
<path d="M1549.01 655.99C1558.75 661.607 1566.65 675.269 1566.65 686.502C1566.65 697.736 1558.75 702.297 1549.01 696.673C1539.26 691.056 1531.37 677.394 1531.37 666.161C1531.37 654.928 1539.26 650.374 1549.01 655.99Z" fill="#375A64"/>
<path d="M1549.01 791.719C1558.75 797.335 1566.65 810.997 1566.65 822.238C1566.65 833.471 1558.75 838.025 1549.01 832.409C1539.26 826.792 1531.37 813.123 1531.37 801.889C1531.37 790.656 1539.26 786.102 1549.01 791.719Z" fill="#375A64"/>
<path d="M2358.29 317.257C2358.29 305.279 2349.88 300.429 2339.48 306.414L2270.08 346.432L1759.68 640.739C1749.29 646.725 1740.87 661.291 1740.87 673.268L1740.88 1748.78C1740.88 1760.75 1749.3 1765.61 1759.68 1759.62L2270.27 1465.21L2339.49 1425.3C2349.88 1419.31 2358.3 1404.74 2358.3 1392.77L2358.29 317.257Z" fill="white"/>
<path d="M2358.29 317.257C2358.29 305.279 2349.88 300.429 2339.48 306.414L2270.08 346.432L1759.68 640.739C1749.29 646.725 1740.87 661.291 1740.87 673.268L1740.88 1748.78C1740.88 1760.75 1749.3 1765.61 1759.68 1759.62L2270.27 1465.21L2339.49 1425.3C2349.88 1419.31 2358.3 1404.74 2358.3 1392.77L2358.29 317.257Z" stroke="#9B64FD" stroke-width="1.33333" stroke-miterlimit="10"/>
<path d="M1751.28 1765.81C1748.87 1765.81 1746.6 1765.23 1744.58 1764.07C1739.86 1761.34 1737.26 1755.92 1737.26 1748.78V673.265C1737.26 659.936 1746.31 644.271 1757.87 637.607L2268.28 343.299L2271.9 349.559L1761.49 643.867C1752.28 649.18 1744.5 662.639 1744.5 673.265V1748.78C1744.5 1753.16 1745.85 1756.45 1748.19 1757.81C1750.55 1759.16 1754.07 1758.68 1757.87 1756.49L2268.46 1462.08L2272.08 1468.34L1761.49 1762.75C1757.96 1764.79 1754.48 1765.81 1751.28 1765.81Z" fill="#9B64FD"/>
<path d="M1751.28 1765.81C1748.87 1765.81 1746.6 1765.23 1744.58 1764.07C1739.86 1761.34 1737.26 1755.92 1737.26 1748.78V673.265C1737.26 659.936 1746.31 644.271 1757.87 637.607L2268.28 343.299L2271.9 349.559L1761.49 643.867C1752.28 649.18 1744.5 662.639 1744.5 673.265V1748.78C1744.5 1753.16 1745.85 1756.45 1748.19 1757.81C1750.55 1759.16 1754.07 1758.68 1757.87 1756.49L2268.46 1462.08L2272.08 1468.34L1761.49 1762.75C1757.96 1764.79 1754.48 1765.81 1751.28 1765.81Z" stroke="#9B64FD" stroke-width="1.33333" stroke-miterlimit="10"/>
<path d="M2272.08 1468.34L2268.46 1462.08L2337.68 1422.17C2346.9 1416.85 2354.68 1403.39 2354.68 1392.78L2354.67 317.259C2354.67 312.878 2353.33 309.589 2350.98 308.23C2348.64 306.879 2345.11 307.349 2341.3 309.546L2271.9 349.557L2268.28 343.297L2337.68 303.286C2343.86 299.722 2349.87 299.245 2354.59 301.97C2359.31 304.688 2361.91 310.117 2361.91 317.259L2361.92 1392.78C2361.92 1406.1 2352.86 1421.76 2341.3 1428.43L2272.08 1468.34Z" fill="#9B64FD"/>
<path d="M2272.08 1468.34L2268.46 1462.08L2337.68 1422.17C2346.9 1416.85 2354.68 1403.39 2354.68 1392.78L2354.67 317.259C2354.67 312.878 2353.33 309.589 2350.98 308.23C2348.64 306.879 2345.11 307.349 2341.3 309.546L2271.9 349.557L2268.28 343.297L2337.68 303.286C2343.86 299.722 2349.87 299.245 2354.59 301.97C2359.31 304.688 2361.91 310.117 2361.91 317.259L2361.92 1392.78C2361.92 1406.1 2352.86 1421.76 2341.3 1428.43L2272.08 1468.34Z" stroke="#9B64FD" stroke-width="1.33333" stroke-miterlimit="10"/>
<path d="M2049.58 567.193C2114.54 529.741 2167.19 560.101 2167.19 635.005C2167.19 709.908 2114.54 800.982 2049.58 838.433C1984.63 875.892 1931.98 845.525 1931.98 770.629C1931.98 695.725 1984.63 604.644 2049.58 567.193" fill="#9B64FD"/>
<path d="M2049.58 626.14C2070.65 613.989 2087.74 623.842 2087.74 648.137C2087.74 672.44 2070.65 701.991 2049.58 714.135C2028.51 726.286 2011.43 716.441 2011.43 692.138C2011.43 667.835 2028.51 638.292 2049.58 626.14" fill="#9B64FD"/>
<path d="M2123.95 755.712C2123.95 715.788 2095.88 699.604 2061.27 719.569L2039.63 732.046C2005.01 752.004 1976.94 800.552 1976.94 840.476V851.217C1996.95 857.853 2022.15 854.261 2049.59 838.437C2077.8 822.165 2103.68 795.759 2123.95 764.972V755.712Z" fill="#9B64FD"/>
<g opacity="0.699997">
<path d="M2049.58 626.14C2070.65 613.989 2087.74 623.842 2087.74 648.137C2087.74 672.44 2070.65 701.991 2049.58 714.135C2028.51 726.286 2011.43 716.441 2011.43 692.138C2011.43 667.835 2028.51 638.292 2049.58 626.14" fill="white"/>
</g>
<g opacity="0.699997">
<path d="M2123.95 755.712C2123.95 715.788 2095.88 699.604 2061.27 719.569L2039.63 732.046C2005.01 752.004 1976.94 800.552 1976.94 840.476V851.217C1996.95 857.853 2022.15 854.261 2049.59 838.437C2077.8 822.165 2103.68 795.759 2123.95 764.972V755.712Z" fill="white"/>
</g>
<path d="M1822.03 1003.62L1973.36 916.362C1980.29 912.365 1985.91 915.603 1985.91 923.591V928.579C1985.91 936.566 1980.29 946.274 1973.36 950.265L1822.03 1037.52C1815.11 1041.52 1809.5 1038.28 1809.5 1030.29V1025.31C1809.5 1017.32 1815.11 1007.61 1822.03 1003.62Z" fill="#9B64FD"/>
<g opacity="0.100006">
<path d="M1822.03 1003.62L1973.36 916.362C1980.29 912.365 1985.91 915.603 1985.91 923.591V928.579C1985.91 936.566 1980.29 946.274 1973.36 950.265L1822.03 1037.52C1815.11 1041.52 1809.5 1038.28 1809.5 1030.29V1025.31C1809.5 1017.32 1815.11 1007.61 1822.03 1003.62Z" fill="black"/>
</g>
<path d="M1815.77 1108.95L2273.64 844.938C2277.11 842.943 2279.91 844.555 2279.91 848.552V901.907C2279.91 905.897 2277.11 910.755 2273.64 912.75L1815.77 1176.76C1812.31 1178.76 1809.5 1177.15 1809.5 1173.15V1119.79C1809.5 1115.8 1812.31 1110.95 1815.77 1108.95Z" fill="#9B64FD"/>
<g opacity="0.199997">
<path d="M1815.77 1108.95L2273.64 844.938C2277.11 842.943 2279.91 844.555 2279.91 848.552V901.907C2279.91 905.897 2277.11 910.755 2273.64 912.75L1815.77 1176.76C1812.31 1178.76 1809.5 1177.15 1809.5 1173.15V1119.79C1809.5 1115.8 1812.31 1110.95 1815.77 1108.95Z" fill="white"/>
</g>
<path d="M1822.03 1240.96L1973.36 1153.7C1980.29 1149.7 1985.91 1152.94 1985.91 1160.93V1165.92C1985.91 1173.9 1980.29 1183.61 1973.36 1187.6L1822.03 1274.86C1815.11 1278.86 1809.5 1275.62 1809.5 1267.63V1262.64C1809.5 1254.66 1815.11 1244.96 1822.03 1240.96Z" fill="#9B64FD"/>
<g opacity="0.100006">
<path d="M1822.03 1240.96L1973.36 1153.7C1980.29 1149.7 1985.91 1152.94 1985.91 1160.93V1165.92C1985.91 1173.9 1980.29 1183.61 1973.36 1187.6L1822.03 1274.86C1815.11 1278.86 1809.5 1275.62 1809.5 1267.63V1262.64C1809.5 1254.66 1815.11 1244.96 1822.03 1240.96Z" fill="black"/>
</g>
<path d="M1815.77 1346.29L2273.64 1082.28C2277.11 1080.28 2279.91 1081.89 2279.91 1085.89V1139.24C2279.91 1143.24 2277.11 1148.09 2273.64 1150.08L1815.77 1414.1C1812.31 1416.1 1809.5 1414.48 1809.5 1410.49V1357.13C1809.5 1353.14 1812.31 1348.28 1815.77 1346.29Z" fill="#9B64FD"/>
<g opacity="0.199997">
<path d="M1815.77 1346.29L2273.64 1082.28C2277.11 1080.28 2279.91 1081.89 2279.91 1085.89V1139.24C2279.91 1143.24 2277.11 1148.09 2273.64 1150.08L1815.77 1414.1C1812.31 1416.1 1809.5 1414.48 1809.5 1410.49V1357.13C1809.5 1353.14 1812.31 1348.28 1815.77 1346.29Z" fill="white"/>
</g>
<path d="M1998.44 1376.58L2179.18 1272.37C2186.1 1268.37 2191.71 1271.61 2191.71 1279.6V1335.45C2191.71 1343.43 2186.1 1353.14 2179.18 1357.13L1998.44 1461.35C1991.52 1465.33 1985.91 1462.1 1985.91 1454.12V1398.27C1985.91 1390.29 1991.52 1380.58 1998.44 1376.58Z" fill="#9B64FD"/>
<g opacity="0.100006">
<path d="M1998.44 1376.58L2179.18 1272.37C2186.1 1268.37 2191.71 1271.61 2191.71 1279.6V1335.45C2191.71 1343.43 2186.1 1353.14 2179.18 1357.13L1998.44 1461.35C1991.52 1465.33 1985.91 1462.1 1985.91 1454.12V1398.27C1985.91 1390.29 1991.52 1380.58 1998.44 1376.58Z" fill="black"/>
</g>
<path d="M2426.92 1141.08C2426.92 1141.08 2338 1018.57 2332.58 1004C2328.48 993.012 2332.86 976.661 2333.88 969.071C2334.89 961.473 2336.36 944.565 2337.63 939.86C2339.84 931.648 2329.18 933.325 2323.2 940.792C2317.08 948.447 2315.12 963.374 2312.07 965.832C2309.03 968.283 2285.27 933.816 2272.87 917.863C2260.48 901.902 2252.72 892.295 2245.19 898.208C2239.76 902.466 2243.8 911.762 2252.78 925.344C2261.77 938.927 2265.75 945.223 2267.11 948.144C2268.46 951.057 2261.07 951.295 2257.08 957.425C2253.97 962.211 2256.87 969.952 2252.75 973.646C2248.62 977.34 2244.78 983.983 2249.3 991.472C2255.06 1001.01 2266.62 1014.63 2279.91 1023.83C2293.21 1033.04 2298.6 1036.27 2306.44 1048.79C2314.28 1061.3 2385.13 1189.05 2389.88 1196.71C2394.63 1204.38 2403.87 1219.99 2417.84 1220.44C2431.83 1220.89 2546.16 1122.56 2552.05 1117.66C2570.9 1101.96 2576.84 1099.66 2580.09 1113.8C2581.11 1118.22 2581.78 1123.27 2582.49 1128.97C2584.75 1146.87 2596.96 1210.92 2596.96 1210.92C2596.96 1210.92 2654.79 1238.91 2702.41 1225.12C2750.03 1211.32 2765.99 1191.45 2765.99 1191.45L2742.17 1152.69C2748.66 1136.67 2778.61 1071.95 2788.01 1026.6L2638.91 1002.55C2635.85 1001.89 2630.96 1000.66 2624.72 999.019C2616.53 996.865 2595.96 989.651 2580.08 1003.43C2528.77 1048 2426.92 1141.08 2426.92 1141.08Z" fill="#FFAAA8"/>
<path d="M2722.53 1892.41L2695.8 1929.5C2695.8 1929.5 2708.18 1936.75 2734.62 1937.75C2758.54 1938.66 2765.12 1930.82 2766 1928.94C2770.03 1920.29 2763.73 1904.68 2762 1891.27L2722.53 1892.41Z" fill="#2B454E"/>
<path d="M2697.3 1911.69C2697.3 1911.69 2664.91 1909.63 2642.52 1906.81C2620.11 1903.99 2602.4 1914.91 2607.66 1924.12C2612.93 1933.33 2625.25 1940.99 2644.44 1947.43C2660.89 1952.96 2680.59 1956.98 2697.76 1962.11C2715.36 1967.37 2726.63 1973.39 2736.59 1969.97C2747.71 1966.14 2752.48 1961.71 2751.53 1953.62C2750.59 1945.54 2742.53 1919.52 2742.53 1919.52L2697.3 1911.69Z" fill="#2B454E"/>
<path d="M2766 1855.13C2766 1855.13 2761.94 1888.82 2761.63 1896.06C2761.32 1903.29 2728.71 1905.61 2722.53 1892.4L2721.51 1851.21L2766 1855.13Z" fill="#FF9090"/>
<path d="M2733.11 1875.87L2744.78 1926.98C2744.78 1926.98 2745.88 1933.22 2719.21 1937.18C2692.55 1941.15 2650.75 1923.26 2643.63 1919.62C2636.51 1915.98 2635.66 1908.74 2661.84 1910.19C2688.02 1911.64 2697.3 1911.69 2697.3 1911.69L2688.8 1889.03L2733.11 1875.87Z" fill="#FFAAA8"/>
<path d="M2788.01 1026.59L2806.44 1021.51C2806.44 1021.51 2845.05 1143.44 2849.32 1155.18C2853.59 1166.92 2858.4 1179.44 2850.1 1193.97C2840.2 1211.26 2788.01 1280.88 2788.01 1280.88L2754.88 1248.51L2792.46 1179.73L2759.22 1112.46L2788.01 1026.59Z" fill="#FF9090"/>
<path d="M2598.24 868.11C2598.24 868.11 2583.46 844.487 2599.03 815.558C2617.37 781.482 2658.38 764.849 2707.19 771.224C2729.74 774.174 2756.35 792.657 2770.94 820.885C2786.98 851.882 2788.48 914.359 2792.46 937.99L2598.24 868.11Z" fill="#2B454E"/>
<path d="M2597.13 881.452C2597.13 881.452 2585.54 903.499 2587.55 905.509C2589.56 907.511 2597.29 909.138 2597.29 909.138L2597.13 881.452Z" fill="#FFAAA8"/>
<path d="M2632.32 811.746C2619.71 819.957 2598.01 834.964 2597.05 884.509C2596.07 935.377 2603.27 951.772 2610.8 957.663C2615.88 961.639 2645.6 959.629 2658.37 956.629C2671.13 953.637 2707.84 935.529 2721.05 907.988C2736.58 875.596 2733.44 828.162 2710.32 814.391C2677.78 795.011 2643 804.799 2632.32 811.746Z" fill="#FFAAA8"/>
<path d="M2765.99 1191.45C2788.31 1226.14 2809.53 1256.7 2814.06 1295.68C2823.61 1378.02 2792.25 1472.15 2785.6 1533.02C2785.6 1533.02 2806.66 1560.38 2806.64 1592.51C2806.62 1617.66 2766 1855.13 2766 1855.13C2766 1855.13 2736.44 1864.12 2721.51 1851.21L2693.59 1414.35L2708.3 1361.17L2765.99 1191.45Z" fill="#9B64FD"/>
<g opacity="0.199997">
<path d="M2765.99 1191.45C2788.31 1226.14 2809.53 1256.7 2814.06 1295.68C2823.61 1378.02 2792.25 1472.15 2785.6 1533.02C2785.6 1533.02 2806.66 1560.38 2806.64 1592.51C2806.62 1617.66 2766 1855.13 2766 1855.13C2766 1855.13 2736.44 1864.12 2721.51 1851.21L2693.59 1414.35L2708.3 1361.17L2765.99 1191.45Z" fill="black"/>
</g>
<path d="M2693.59 1414.35L2708.3 1361.17C2708.3 1361.17 2749.08 1351.33 2788.01 1329.59C2788.01 1329.59 2772.92 1356.97 2729.7 1371.97L2707.19 1440.34L2705.25 1596.79L2693.59 1414.35Z" fill="#9B64FD"/>
<g opacity="0.300003">
<path d="M2693.59 1414.35L2708.3 1361.17C2708.3 1361.17 2749.08 1351.33 2788.01 1329.59C2788.01 1329.59 2772.92 1356.97 2729.7 1371.97L2707.19 1440.34L2705.25 1596.79L2693.59 1414.35Z" fill="black"/>
</g>
<path d="M2765.99 1191.45C2777.93 1210.92 2806.48 1244.21 2800.41 1276.2C2793.05 1314.96 2772.17 1342.2 2708.3 1361.17L2648.39 1577.86C2648.39 1577.86 2679.58 1607.01 2689.12 1634.74C2698.65 1662.47 2733.11 1875.86 2733.11 1875.86C2733.11 1875.86 2722.45 1893.23 2688.8 1889.03C2688.8 1889.03 2571.48 1621.39 2563.18 1604.16C2554.9 1586.93 2549.53 1574.05 2553.25 1545.98C2556.99 1517.92 2596.95 1210.92 2596.95 1210.92L2765.99 1191.45Z" fill="#9B64FD"/>
<g opacity="0.199997">
<path d="M2765.99 1191.45C2777.93 1210.92 2806.48 1244.21 2800.41 1276.2C2793.05 1314.96 2772.17 1342.2 2708.3 1361.17L2648.39 1577.86C2648.39 1577.86 2679.58 1607.01 2689.12 1634.74C2698.65 1662.47 2733.11 1875.86 2733.11 1875.86C2733.11 1875.86 2722.45 1893.23 2688.8 1889.03C2688.8 1889.03 2571.48 1621.39 2563.18 1604.16C2554.9 1586.93 2549.53 1574.05 2553.25 1545.98C2556.99 1517.92 2596.95 1210.92 2596.95 1210.92L2765.99 1191.45Z" fill="black"/>
</g>
<path d="M2788.01 1026.59L2638.91 1002.55C2635.86 1001.89 2630.93 1000.65 2624.7 999.016L2624.69 999.009C2624.69 999.009 2618.33 1092.37 2580.09 1113.8H2580.08C2580.99 1118.25 2581.78 1123.26 2582.49 1128.97C2584.75 1146.86 2596.95 1210.92 2596.95 1210.92C2596.95 1210.92 2654.79 1238.91 2702.4 1225.11C2750.02 1211.32 2765.99 1191.46 2765.99 1191.46L2742.17 1152.68C2748.66 1136.68 2778.61 1071.95 2788.01 1026.59Z" fill="#9B64FD"/>
<g opacity="0.699997">
<path d="M2788.01 1026.59L2638.91 1002.55C2635.86 1001.89 2630.93 1000.65 2624.7 999.016L2624.69 999.009C2624.69 999.009 2618.33 1092.37 2580.09 1113.8H2580.08C2580.99 1118.25 2581.78 1123.26 2582.49 1128.97C2584.75 1146.86 2596.95 1210.92 2596.95 1210.92C2596.95 1210.92 2654.79 1238.91 2702.4 1225.11C2750.02 1211.32 2765.99 1191.46 2765.99 1191.46L2742.17 1152.68C2748.66 1136.68 2778.61 1071.95 2788.01 1026.59Z" fill="white"/>
</g>
<path d="M2748.67 1137.44C2748.07 1138.84 2700.74 1164.16 2686.69 1168.04C2708.85 1166.95 2727.27 1161.74 2742.17 1152.68L2748.67 1137.44Z" fill="#9B64FD"/>
<path d="M2628.6 814.241C2628.6 814.241 2621.65 861.249 2638.48 888.819C2638.48 888.819 2644.8 870.111 2660.72 873.682C2676.74 877.282 2677.42 898.064 2666.29 909.847C2655.16 921.63 2642.77 917.372 2642.77 917.372C2642.77 917.372 2640.27 951.347 2638.93 979.835C2637.64 1007.28 2629.96 1070.4 2662.06 1095.78C2694.16 1121.16 2774.61 1129.72 2812.31 1077.08C2833.29 1047.8 2805.42 996.027 2792.46 937.988C2780.54 884.619 2773.83 805.523 2717.13 792.837C2660.44 780.15 2628.6 814.241 2628.6 814.241Z" fill="#2B454E"/>
<path d="M2836.6 172.225L2824.65 179.121C2825.59 174.726 2826.27 170.36 2826.27 166.167C2826.27 141.98 2809.28 132.178 2788.3 144.272C2782.2 147.792 2776.53 152.874 2771.42 158.765C2771.42 158.707 2771.42 158.649 2771.42 158.584C2771.42 126.034 2748.55 112.834 2720.32 129.113C2692.08 145.392 2669.2 184.976 2669.2 217.534C2669.2 219.197 2669.3 220.765 2669.41 222.319C2663.44 221.257 2656.32 222.717 2648.65 227.141C2627.68 239.234 2610.68 268.633 2610.68 292.82C2610.68 296.153 2611.03 299.174 2611.64 301.936L2605.27 305.608C2587.96 315.591 2573.93 335.065 2573.93 349.11C2573.93 363.155 2587.96 366.444 2605.27 356.469L2836.6 223.086C2853.91 213.103 2867.94 193.622 2867.94 179.584C2867.94 165.538 2853.91 162.242 2836.6 172.225Z" fill="#ECECEC"/>
</svg>
